<?xml version="1.0" encoding="UTF-8"?>
<svg id="Layer_2" data-name="Layer 2" xmlns="http://www.w3.org/2000/svg" viewBox="0 0 297.64 64.09">
  <defs>
    <style>
      .cls-1 {
        fill-rule: evenodd;
      }

      .cls-1, .cls-2 {
        fill: #1c1c1c;
      }
    </style>
  </defs>
  <g id="Layer_1-2" data-name="Layer 1">
    <path class="cls-2" d="M161.98,27.57c10.01,0,13.85,7.77,13.85,15.19v1.95h-22.71c0,5.03,4.62,8.31,9.6,8.31,3.13-.09,6.02-1.69,7.8-4.3l4.1,3.16c-2.98,3.98-7.71,6.2-12.64,5.94-9.01,0-14.63-6.54-14.63-15.12-.16-4,1.32-7.9,4.09-10.76,2.77-2.86,6.58-4.44,10.54-4.36ZM220.24,27.57c8.22.14,14.78,6.97,14.69,15.29-.09,8.32-6.8,15-15.01,14.96-8.22-.05-14.85-6.8-14.85-15.12,0-4.05,1.61-7.94,4.46-10.78,2.85-2.84,6.72-4.41,10.72-4.34ZM193.49,27.6c4.11-.11,8.07,1.55,10.91,4.55l-4.08,3.82c-1.76-2.1-4.36-3.29-7.08-3.22-5.87,0-8.88,4.8-8.88,10.2-.15,2.55.76,5.06,2.5,6.91,1.74,1.85,4.16,2.89,6.69,2.87,2.67.09,5.23-1.1,6.89-3.22l3.84,3.84c-2.79,2.99-6.73,4.61-10.79,4.43-3.99.2-7.88-1.31-10.71-4.17-2.83-2.86-4.34-6.79-4.16-10.83-.18-4.06,1.32-8.01,4.15-10.89,2.83-2.88,6.71-4.44,10.72-4.29ZM283.77,27.51c10.03,0,13.87,7.77,13.87,15.19v1.95l-22.83.06c0,5.03,4.62,8.31,9.6,8.31,3.12-.1,6.02-1.7,7.8-4.3l4.1,3.16c-2.98,3.95-7.7,6.15-12.6,5.88-8.98,0-14.63-6.54-14.63-15.12-.16-4.01,1.33-7.92,4.11-10.78,2.78-2.86,6.61-4.44,10.58-4.34ZM111.93,57.09h-5.33v-28.79h5.33v28.79ZM123.62,32.75c1.88-3.4,5.51-5.41,9.35-5.17,5.52,0,10.26,3.34,10.26,10.99v18.53h-5.33v-16.99c0-5.42-3.06-7.42-6.48-7.42-4.49,0-7.92,2.91-7.92,9.6v14.81h-5.39v-28.79h5.39v4.45h.12ZM88.13,14.09c10.85,0,13.6,6.63,13.6,12.03s-2.81,12.03-13.6,12.03h-9.25v18.94h-5.74V14.09h15ZM245.12,32.75c1.89-3.4,5.53-5.41,9.37-5.17,5.52,0,10.26,3.34,10.26,10.99v18.53h-5.4v-16.99c0-5.42-3.06-7.42-6.46-7.42-4.51,0-7.92,2.91-7.92,9.6v14.81h-5.25v-28.79h5.39v4.45ZM220.24,32.69c-5.74,0-9.37,4.15-9.37,10.01s3.61,10.03,9.37,10.03c5.74,0,9.36-4.15,9.36-10.03s-3.61-10.01-9.36-10.01ZM161.98,32.02c-4.65-.03-8.52,3.61-8.82,8.31h17.03c-.12-4.8-2.77-8.31-8.21-8.31ZM283.63,32.02c-4.65-.04-8.53,3.61-8.82,8.31h17.03c-.12-4.8-2.75-8.31-8.21-8.31ZM78.88,33.04h7.57c4.55,0,9.11-1.08,9.11-6.92,0-5.84-4.55-6.92-9.11-6.92h-7.57v13.83ZM109.24,13.89c2.17,0,3.93,1.77,3.96,3.96.02,2.19-1.7,4-3.86,4.05-2.17.05-3.97-1.67-4.05-3.86-.03-1.09.37-2.14,1.11-2.92.74-.78,1.77-1.23,2.84-1.23Z"/>
  </g>
  <g id="Layer_2-2" data-name="Layer 2">
    <g>
      <path class="cls-1" d="M18.62,43.16l2,3.46,5.52-3.18-1.31,7.44,3.94.69,1.31-7.44,4.1,4.88,3.05-2.57-7.12-8.49c-.47-.56-1.27-.7-1.9-.33l-9.58,5.54Z"/>
      <path class="cls-1" d="M21.92,24.45l2,3.46,5.52-3.18-1.31,7.44,3.94.69,1.31-7.44,4.1,4.88,3.05-2.57-7.12-8.49c-.47-.56-1.27-.7-1.9-.33l-9.58,5.54Z"/>
      <path class="cls-1" d="M53.39,30.09l-3.46,2,3.18,5.52-7.44-1.31-.69,3.94,7.44,1.31-4.88,4.1,2.57,3.05,8.49-7.12c.56-.47.7-1.27.33-1.9l-5.54-9.58Z"/>
      <path class="cls-1" d="M25.22,5.74l2,3.46,5.52-3.18-1.31,7.44,3.94.69,1.31-7.44,4.1,4.88,3.05-2.57L36.7.54c-.47-.56-1.27-.7-1.9-.33l-9.58,5.54Z"/>
      <circle class="cls-2" cx="25.14" cy="60.59" r="3.5"/>
      <path class="cls-1" d="M9.02,22.26l2.57,3.06-4.88,4.1,7.44,1.31-.69,3.94-7.44-1.31,3.18,5.52-3.46,1.99L.2,31.27c-.36-.63-.22-1.43.34-1.9l8.48-7.11Z"/>
      <path class="cls-1" d="M24.87,8.73l-.35,3.98-6.34-.55,4.34,6.19-3.28,2.29-4.34-6.19-1.65,6.15-3.85-1.04,2.87-10.7c.19-.7.85-1.17,1.58-1.11l11.03.97Z"/>
      <path class="cls-1" d="M43.13,11.95l-1.03,3.86,6.15,1.65-6.19,4.34,2.29,3.28,6.19-4.34-.55,6.34,3.98.34.97-11.03c.06-.73-.4-1.39-1.11-1.58l-10.69-2.86Z"/>
      <path class="cls-1" d="M16,59l1.03-3.86-6.15-1.65,6.19-4.34-2.29-3.28-6.19,4.34.55-6.34-3.98-.34-.97,11.03c-.06.73.4,1.39,1.11,1.58l10.69,2.86Z"/>
      <path class="cls-1" d="M34.27,62.22l.35-3.98,6.34.55-4.34-6.19,3.28-2.29,4.34,6.19,1.65-6.15,3.85,1.04-2.87,10.7c-.19.7-.85,1.17-1.58,1.11l-11.03-.97Z"/>
    </g>
  </g>
</svg>